<?xml version="1.0" encoding="UTF-8"?>
<svg width="44px" height="30px" viewBox="0 0 44 30" version="1.1" xmlns="http://www.w3.org/2000/svg" xmlns:xlink="http://www.w3.org/1999/xlink">
    <!-- Generator: Sketch 51.2 (57519) - http://www.bohemiancoding.com/sketch -->
    <title>slonik</title>
    <desc>Created with Sketch.</desc>
    <defs></defs>
    <g id="Visual-/-supersweet-final" stroke="none" stroke-width="1" fill="none" fill-rule="evenodd">
        <g id="1-1-Homepage" transform="translate(-141.000000, -50.000000)" fill-rule="nonzero">
            <g id="menu/dark" transform="translate(141.000000, 50.000000)">
                <g id="logo">
                    <g id="slonik">
                        <path d="M10.6728771,19.9318851 L11.189542,22.8755057 C11.2834811,23.4829195 11.3069601,25.1416207 9.99181302,25.4686897 C10.4615084,25.8424827 11.0486334,25.9592988 11.4713592,25.9592988 C13.2561555,25.9592988 13.6789391,24.5809311 13.6789391,22.5717931 L13.6789391,20.8196437 C13.6789391,20.2122299 13.2326996,19.9318851 12.6690651,19.9318851 L10.6728771,19.9318851 Z" id="Shape" fill="#FFFFFF"></path>
                        <path d="M23.69125,29.9606896 L17.8368697,29.9606896 L14.9896954,18.3978161 C17.0654832,17.1655172 19.141271,15.9331035 21.2171744,14.7008046 L26.53646,24.9228622 L23.69125,29.9606896 Z M36.5076366,29.9606896 L29.5883822,29.9606896 L43.1786975,13.8911494 L36.5076366,29.9606896 Z M29.5883822,4.27195403 L43.1239285,13.1805747 L43.1239285,13.2833333 L29.3214707,29.7533219 L21.5899265,14.4795402 L29.533729,9.76356322 C29.533729,9.7424138 29.5702417,9.74195402 29.5883822,9.73114943 L29.5883822,4.27195403 Z M5.6656124,28.1852758 L1.9045021,26.6559885 L0.30570063,22.8542988 L6.18405671,22.4136437 L5.6656124,28.1852758 Z M10.5538414,21.2145862 L10.5784181,21.2145862 L5.98158509,28.1852758 L7.40581932,9.81931035 L10.5538414,21.2145862 Z M2.59690127,22.4136437 L0.30570063,22.6014828 L0,14.3986207 L2.59690127,22.4136437 Z M13.4183824,20.7835517 L10.8841187,20.7835517 L7.59647058,8.9713793 L10.71898,4.21574712 L23.3598634,0.0237931035 L13.4183824,20.7835517 Z M23.8709244,0 L29.1004306,1.65528736 L29.1004306,9.51885058 C29.1004306,9.51885058 15.2405462,17.805977 15.2805252,17.7231035 L23.8289811,0.0481609195 L23.8709244,0 Z M12.5319118,11.9654023 C13.3682353,11.9654023 14.0473004,12.6409195 14.0473004,13.4728736 C14.0473004,14.3048276 13.3682353,14.9803448 12.5319118,14.9803448 C11.6954727,14.9803448 11.0165115,14.3048276 11.0165115,13.4728736 C11.0165115,12.6409195 11.6954727,11.9654023 12.5319118,11.9654023 Z" id="Shape" fill="#4A81D7"></path>
                    </g>
                </g>
            </g>
        </g>
    </g>
</svg>