<?xml version="1.0" encoding="UTF-8"?>
<svg width="129px" height="114px" viewBox="0 0 129 114" version="1.1" xmlns="http://www.w3.org/2000/svg" xmlns:xlink="http://www.w3.org/1999/xlink">
    <!-- Generator: Sketch 51.3 (57544) - http://www.bohemiancoding.com/sketch -->
    <title>jetbrains-blackandwhite</title>
    <desc>Created with Sketch.</desc>
    <defs></defs>
    <g id="Symbols" stroke="none" stroke-width="1" fill="none" fill-rule="evenodd">
        <g id="element/footer" transform="translate(-599.000000, -553.000000)">
            <g id="content">
                <g>
                    <rect id="bg" fill="#100E1C" x="0" y="0" width="1440" height="666"></rect>
                    <g id="menu/light" transform="translate(240.000000, 102.000000)" fill-rule="nonzero">
                        <g id="Group-2" transform="translate(0.000000, 451.000000)">
                            <g id="jetbrains-blackandwhite" transform="translate(359.000000, 0.000000)">
                                <path d="M128.999895,73.8185595 C129.00867,72.4146052 128.46948,71.0628941 127.497556,70.0523065 L59.2388089,2.89179365 C58.2672055,1.77790035 57.021276,0.938995634 55.6253523,0.458794184 C55.588148,0.445881317 55.5522528,0.430687176 55.5148231,0.418269301 C55.3073287,0.35022925 55.0949195,0.294402619 54.8806217,0.242578978 C54.8088421,0.225038999 54.7392194,0.202979517 54.6666458,0.187344187 C54.4655041,0.144301295 54.2598447,0.114838435 54.0537239,0.0865915377 C53.9691637,0.0749699569 53.8871038,0.0571071567 53.8016315,0.047971303 C53.5078601,0.0164168815 53.2126349,0.000404255748 52.9171834,0 C52.4817926,0.00313852724 52.0473221,0.040604478 51.6177894,0.112051408 C51.5925716,0.116258851 51.5674181,0.119271853 51.5422754,0.123672989 C50.3508706,0.320946703 49.2177695,0.780179771 48.2242537,1.46842978 C48.145456,1.51979071 48.0579233,1.56070298 47.9810036,1.61410844 L5.27159273,30.452846 C5.18337327,30.5413099 5.10949041,30.567254 5.08087087,30.62972 L5.02711934,30.6680604 L4.94966306,30.6680604 C1.23583045,33.3550268 -0.616188889,37.936769 0.183794821,42.4584232 L0.192959085,42.5062976 C0.248502684,42.8139359 0.311118004,43.1192069 0.390108813,43.4206685 C0.422859791,43.5487211 0.46483942,43.6735455 0.501711097,43.8003499 C0.559658437,43.995119 0.612004201,44.1913946 0.679534314,44.3827202 C1.57826677,47.0008626 3.35229743,49.2267609 5.70083229,50.6830051 C6.37326569,51.0941056 7.09423698,51.4194416 7.84703006,51.6514702 C8.27626962,51.8666847 56.5657196,71.8816294 56.5657196,71.8816294 C58.6928274,72.8485345 61.2049279,72.0654816 62.4105347,70.0597279 C63.6161416,68.0539742 63.133399,65.4608087 61.2873547,64.0263016 C61.217335,64.0263016 43.2174425,49.807814 30.4901892,39.7866325 L53.1379413,19.3077608 L115.289844,72.6624597 L30.7040364,119.121203 C28.5895492,120.003394 26.819088,121.552118 25.6604716,123.5331 C24.1859562,125.996188 23.7475891,128.945768 24.4418064,131.732963 C25.1360237,134.520158 26.9059584,136.916655 29.3622443,138.395251 C29.4157633,138.427468 29.4695577,138.459219 29.5236276,138.490504 C33.0898923,140.577969 37.5198053,140.494937 41.0057857,138.27529 C41.2204055,138.060076 41.5423352,137.952468 41.7569549,137.737254 L125.458668,78.7684921 C126.050693,78.346169 126.618915,77.891261 127.160721,77.4058617 C128.238694,76.513824 128.903698,75.2167373 128.999895,73.8185595 Z" id="Shape" fill="#FFFFFF"></path>
                                <g id="_Group_" transform="translate(37.000000, 40.000000)">
                                    <rect id="_Path_" fill="#000000" x="0.661959766" y="0.432307313" width="55.1191825" height="55.1191825"></rect>
                                    <rect id="_Path_2" fill="#FFFFFF" x="5.41735102" y="45.1761143" width="20.6426742" height="3.45845851"></rect>
                                    <g id="_Group_2" transform="translate(4.323073, 6.484610)" fill="#FFFFFF">
                                        <path d="M0.878113423,8.42999261 L2.49926585,6.91691702 C2.80494697,7.41065979 3.32574524,7.73115103 3.90426462,7.78153164 C4.55272559,7.78153164 4.87695607,7.34922433 4.87695607,6.4846097 L4.87695607,0.756537799 L7.36272312,0.756537799 L7.36272312,6.4846097 C7.46952494,7.40178834 7.15103339,8.31745075 6.49810794,8.9703762 C5.84518249,9.62330165 4.92952009,9.9417932 4.01234145,9.83499138 C2.78595576,9.9971241 1.57304719,9.45340647 0.878113423,8.42999261 Z" id="_Path_3"></path>
                                        <polygon id="_Path_4" points="7.90310727 0.864614627 15.1442548 0.864614627 15.1442548 2.91807437 10.3888743 2.91807437 10.3888743 4.32307313 14.7119475 4.32307313 14.7119475 6.26845605 10.3888743 6.26845605 10.3888743 7.67345481 15.2523316 7.67345481 15.2523316 9.83499138 8.0111841 9.83499138"></polygon>
                                        <polygon id="_Path_5" points="18.3865596 3.02615119 15.6846389 3.02615119 15.6846389 0.864614627 23.5742474 0.864614627 23.5742474 3.02615119 20.8723267 3.02615119 20.8723267 9.83499138 18.3865596 9.83499138"></polygon>
                                        <path d="M1.09427789,11.8884511 L5.74158151,11.8884511 C6.63125839,11.8570894 7.50598793,12.1233115 8.22734856,12.6449889 C8.59734187,13.0599105 8.79117087,13.6026317 8.7677327,14.1580645 C8.79466922,15.0749286 8.22707858,15.9044841 7.36273393,16.2115243 C8.39846942,16.3984084 9.13699374,17.3215638 9.09196319,18.3730608 C9.09196319,19.8861364 7.79504125,20.8588279 5.74158151,20.8588279 L1.09427789,20.8588279 L1.09427789,11.8884511 Z M6.28196565,14.6984487 C6.28196565,14.1580645 5.84965834,13.9419109 5.20119737,13.9419109 L3.58004494,13.9419109 L3.58004494,15.5630633 L5.09312054,15.5630633 C5.84965834,15.4549865 6.28195484,15.2388328 6.28195484,14.6984487 L6.28196565,14.6984487 Z M5.41735102,17.2922925 L3.47196811,17.2922925 L3.47196811,18.913445 L5.41735102,18.913445 C6.17388882,18.913445 6.60619613,18.5892145 6.60619613,18.0488303 C6.60618533,17.5084462 6.17388882,17.2922925 5.41735102,17.2922925 Z" id="_Compound_Path_"></path>
                                        <path d="M9.52425969,11.8884511 L13.739256,11.8884511 C14.8055861,11.7867309 15.8652984,12.1399683 16.6573304,12.8611426 C17.1890598,13.4075247 17.4640192,14.1538432 17.4138682,14.9146023 C17.4365599,16.1396848 16.7079141,17.2540844 15.5765621,17.7245999 L17.7380986,20.8588279 L14.9281011,20.8588279 L13.090795,18.1569072 L12.0100267,18.1569072 L12.0100267,20.8588279 L9.52425969,20.8588279 L9.52425969,11.8884511 Z M13.6311792,16.2115243 C14.4957938,16.2115243 14.9281011,15.7792169 14.9281011,15.130756 C14.9281011,14.3742182 14.387717,14.0499877 13.6311792,14.0499877 L12.0100267,14.0499877 L12.0100267,16.2115243 L13.6311792,16.2115243 Z" id="_Compound_Path_2"></path>
                                        <path d="M20.3319425,11.8884511 L22.7096328,11.8884511 L26.4923217,20.9669047 L23.790401,20.9669047 L23.1419401,19.3457523 L19.6834816,19.3457523 L19.0350206,20.9669047 L16.4411767,20.9669047 L20.3319425,11.8884511 Z M22.4934791,17.2922925 L21.5207876,14.8065255 L20.5480962,17.2922925 L22.4934791,17.2922925 Z" id="_Compound_Path_3"></path>
                                        <polygon id="_Path_6" points="26.8165522 11.8884511 29.3023193 11.8884511 29.3023193 20.8588279 26.8165522 20.8588279"></polygon>
                                        <polygon id="_Path_7" points="29.9507911 11.8884511 32.2204045 11.8884511 35.8950166 16.6438316 35.8950166 11.8884511 38.3807837 11.8884511 38.3807837 20.8588279 36.2192471 20.8588279 32.4365581 15.9953706 32.4365581 20.9669047 29.9507911 20.9669047"></polygon>
                                        <path d="M38.5969373,19.5619059 L40.0019361,17.9407535 C40.8035743,18.656036 41.8458453,19.0420623 42.9200105,19.0215218 C43.5684714,19.0215218 44.0007787,18.8053681 44.0007787,18.3730608 C44.0007787,17.9407535 43.6765483,17.8326767 42.4877032,17.5084462 C40.5423202,17.0761389 39.1373215,16.5357547 39.1373215,14.6984487 C39.1373215,13.0772962 40.4342434,11.7803743 42.59578,11.7803743 C43.9209506,11.742072 45.2187856,12.1619598 46.2703921,12.9692194 L44.9734702,14.6984487 C44.2387402,14.1899192 43.3794203,13.8910254 42.4877032,13.833834 C41.8392422,13.833834 41.6230885,14.0499877 41.6230885,14.3742182 C41.6230885,14.8065255 41.947319,14.9146023 43.1361641,15.2388328 C45.1896239,15.6711401 46.4865458,16.3196011 46.4865458,18.0488303 C46.4865458,19.8861364 45.081547,20.9669047 42.8119336,20.9669047 C41.2750262,21.085559 39.7552707,20.5789739 38.5969373,19.5619059 Z" id="_Path_8"></path>
                                    </g>
                                </g>
                            </g>
                        </g>
                    </g>
                </g>
            </g>
        </g>
    </g>
</svg>