<svg xmlns="http://www.w3.org/2000/svg" width="430" height="100" viewBox="0 0 430 100">
  <g fill="#FFFFFF" fill-rule="evenodd">
    <g transform="translate(11 9)">
      <path d="M28.4022019,53.1516935 L29.7771283,61.0013487 C30.027115,62.6211188 30.0895963,67.0443218 26.5897834,67.9165057 C27.8397166,68.9132874 29.4021484,69.2247969 30.5270882,69.2247969 C35.2767112,69.2247969 36.4018048,65.5491494 36.4018048,60.1914483 L36.4018048,55.5190498 C36.4018048,53.8992797 35.2142914,53.1516935 33.7143717,53.1516935 L28.4022019,53.1516935 Z"/>
      <path d="M63.0461364,79.8951724 L47.4667112,79.8951724 L39.8899332,49.0608429 C45.4139305,45.7747126 50.9379278,42.4882759 56.4622326,39.2021456 L70.6176872,66.4609655 L63.0461364,79.8951724 Z M97.1525535,79.8951724 L78.7393316,79.8951724 L114.905294,37.0430651 L97.1525535,79.8951724 Z M78.7393316,11.3918774 L114.759545,35.1481992 L114.759545,35.4222222 L78.0290374,79.3421916 L57.4541845,38.6121073 L78.5938904,26.0361686 C78.5938904,25.9797701 78.6910561,25.9785441 78.7393316,25.9497318 L78.7393316,11.3918774 Z M15.0770842,75.1607356 L5.06817914,71.082636 L0.81351738,60.9447969 L16.456746,59.7697165 L15.0770842,75.1607356 Z M28.0854291,56.5722299 L28.1508316,56.5722299 L15.9179372,75.1607356 L19.7080481,26.1848276 L28.0854291,56.5722299 Z M6.91076203,59.7697165 L0.81351738,60.2706207 L0,38.3963218 L6.91076203,59.7697165 Z M35.7084225,55.4228046 L28.9643489,55.4228046 L20.2154011,23.9236782 L28.524889,11.2419923 L62.1642647,0.0634482759 L35.7084225,55.4228046 Z M63.5242781,0 L77.4408155,4.41409962 L77.4408155,25.3836015 C77.4408155,25.3836015 40.5574866,47.4826054 40.663877,47.2616092 L63.4126604,0.128429119 L63.5242781,0 Z M33.349385,31.9077395 C35.5749733,31.9077395 37.3820722,33.7091188 37.3820722,35.9276628 C37.3820722,38.1462069 35.5749733,39.9475862 33.349385,39.9475862 C31.1234893,39.9475862 29.3166671,38.1462069 29.3166671,35.9276628 C29.3166671,33.7091188 31.1234893,31.9077395 33.349385,31.9077395 Z"/>
    </g>
    <path d="M143,75.8579198 C143,79.0610173 149.603309,79.0610173 149.603309,79.0610173 L149.603309,67.2834742 L152.904963,67.2834742 C160.789511,67.2834742 167.737768,64.8688315 167.737768,55.7030448 L167.737768,54.8160332 C167.737768,45.4038543 160.789511,43.3341606 152.904963,43.3341606 L143,43.3341606 L143,75.8579198 Z M152.904963,48.2127245 C157.734249,48.2127245 161.13446,49.444685 161.13446,55.259539 C161.13446,61.5178987 157.734249,62.4049103 152.904963,62.4049103 L149.603309,62.4049103 L149.603309,48.2127245 L152.904963,48.2127245 Z M178.529743,62.0106829 C178.529743,59.0046991 179.466033,57.2799543 182.816966,57.2799543 C185.872228,57.2799543 187.005632,58.7090286 187.005632,60.7787224 C187.005632,62.7498593 185.773671,63.883263 182.225625,63.883263 C180.747272,63.883263 179.022527,63.538314 178.529743,63.4397572 L178.529743,62.0106829 Z M183.999648,79.1595742 C189.666667,79.1595742 193.756776,76.7942099 193.756776,73.2461634 C193.756776,72.0142028 193.263992,70.6836854 192.229145,69.2053327 C192.179866,72.1620381 188.878212,74.2317319 183.999648,74.2317319 C180.303766,74.2317319 178.529743,72.7041007 178.529743,69.7473954 L178.529743,67.9733721 C180.008096,68.5647132 181.585005,68.8603837 183.161915,68.8603837 C190.947906,68.8603837 193.411827,64.9673883 193.411827,60.7787224 C193.411827,55.85088 190.060894,52.5985041 183.01408,52.5985041 C175.967265,52.5985041 172.123548,55.85088 172.123548,61.2715066 L172.123548,70.4865717 C172.123548,75.9071982 176.509328,79.1595742 183.999648,79.1595742 Z M184.295319,40.0325062 C185.18233,41.5108589 183.999648,42.8906548 181.782119,45.1081838 L180.155931,46.7343718 C177.98768,48.9026224 183.161915,50.0853045 183.161915,50.0853045 L186.069342,47.9170539 C189.962337,45.009627 189.173882,40.6731257 184.295319,40.0325062 Z M205.090813,61.3700634 C205.090813,58.9554207 207.751848,57.2799543 210.412883,57.2799543 C212.778247,57.2799543 214.502992,58.6597502 214.502992,61.8628477 L214.502992,75.7100846 C214.502992,78.8146252 220.909187,78.9131821 220.909187,78.9131821 L220.909187,61.1236713 C220.909187,55.3580958 216.326294,52.5985041 211.053502,52.5985041 C207.06195,52.5985041 204.696586,54.5203626 204.696586,54.5203626 C204.696586,54.5203626 205.090813,52.7956178 205.090813,51.5636572 L205.090813,44.7139564 C205.090813,40.8702394 199.029567,41.0180747 198.684618,41.0180747 L198.684618,75.7100846 C198.684618,78.9131821 205.090813,78.9131821 205.090813,78.9131821 L205.090813,61.3700634 Z M241.310454,73.7882261 C241.310454,73.7882261 239.339317,74.6752377 236.727561,74.6752377 C233.918691,74.6752377 232.292503,73.5418339 232.292503,71.3243049 C232.292503,66.9385252 240.17705,68.3675995 241.310454,65.7558431 L241.310454,73.7882261 Z M225.935586,71.4228617 C225.935586,77.2869941 230.912707,79.1595742 235.988384,79.1595742 C238.797254,79.1595742 241.261176,78.2725626 243.725097,78.2725626 C244.957057,78.2725626 246.238296,78.4203978 247.519535,79.0610173 L247.519535,61.0251145 C247.519535,55.6537664 243.675818,52.5985041 236.43189,52.5985041 C232.391059,52.5985041 226.625484,53.8797431 226.625484,58.1669659 C226.625484,59.4974834 227.06899,61.0251145 228.498064,62.946973 C228.498064,58.8075854 232.243224,57.3785112 236.382612,57.3785112 C240.17705,57.3785112 241.162619,58.9554207 241.162619,60.7294439 C239.142203,64.6224394 225.935586,62.2077966 225.935586,71.4228617 Z M238.255192,40.0325062 C239.142203,41.5108589 237.959521,42.8906548 235.741992,45.1081838 L234.115804,46.7343718 C231.947554,48.9026224 237.121788,50.0853045 237.121788,50.0853045 L240.029215,47.9170539 C243.92221,45.009627 243.133756,40.6731257 238.255192,40.0325062 Z M259.543471,80.0958642 C259.543471,78.8639036 259.149243,77.2377157 259.149243,77.2377157 C259.149243,77.2377157 261.416051,79.1595742 265.50616,79.1595742 C270.778951,79.1595742 275.361844,75.9564767 275.361844,70.634407 L275.361844,61.1729497 C275.361844,55.7030448 271.321014,52.5985041 264.274199,52.5985041 C262.204505,52.5985041 259.691306,53.5347942 257.079549,53.5347942 C255.749032,53.5347942 254.418515,53.2391236 253.137276,52.5985041 L253.137276,87.0441219 C253.137276,90.789282 259.099965,90.7400036 259.543471,90.7400036 L259.543471,80.0958642 Z M259.543471,57.8712954 C259.543471,57.8712954 261.465329,57.2799543 263.682858,57.2799543 C267.772967,57.2799543 268.955649,58.8075854 268.955649,61.9121261 L268.955649,69.8952306 C268.955649,73.0983281 267.230905,74.478124 264.86554,74.478124 C262.204505,74.478124 259.543471,72.8026576 259.543471,70.3880149 L259.543471,57.8712954 Z M302.169307,53.4362373 C301.085181,53.0912884 299.853221,52.8448962 298.670539,52.8448962 C296.74868,52.8448962 294.8761,53.4855157 293.93981,55.259539 C291.722281,59.4482049 290.096093,61.6164555 287.188666,62.0599614 L287.188666,44.1226153 C287.188666,40.9195178 280.782471,40.9195178 280.782471,40.9195178 L280.782471,75.7100846 C280.782471,78.9131821 287.188666,78.9131821 287.188666,78.9131821 L287.188666,66.9878037 C297.340021,68.66327 293.496304,78.9131821 300.296727,78.9131821 C301.282295,78.9131821 303.94333,78.2725626 303.94333,78.2725626 C300.937346,72.851936 300.690954,66.8892468 293.348469,64.2774904 C297.783527,62.5034672 299.458993,57.132119 302.169307,53.4362373 Z M321.387892,73.7882261 C321.387892,73.7882261 319.416755,74.6752377 316.804998,74.6752377 C313.996128,74.6752377 312.36994,73.5418339 312.36994,71.3243049 C312.36994,66.9385252 320.254488,68.3675995 321.387892,65.7558431 L321.387892,73.7882261 Z M306.013024,71.4228617 C306.013024,77.2869941 310.990144,79.1595742 316.065822,79.1595742 C318.874692,79.1595742 321.338613,78.2725626 323.802534,78.2725626 C325.034495,78.2725626 326.315734,78.4203978 327.596973,79.0610173 L327.596973,61.0251145 C327.596973,55.6537664 323.753256,52.5985041 316.509328,52.5985041 C312.468497,52.5985041 306.702922,53.8797431 306.702922,58.1669659 C306.702922,59.4974834 307.146427,61.0251145 308.575502,62.946973 C308.575502,58.8075854 312.320662,57.3785112 316.460049,57.3785112 C320.254488,57.3785112 321.240056,58.9554207 321.240056,60.7294439 C319.219641,64.6224394 306.013024,62.2077966 306.013024,71.4228617 Z M339.620908,78.9131821 L339.620908,58.1176875 C340.162971,58.0191307 341.641323,57.5756249 343.31679,57.5756249 C346.174938,57.5756249 348.63886,58.9554207 348.63886,62.0599614 C349.033087,61.4686203 350.905667,59.6453186 350.905667,57.2306759 C350.905667,53.8797431 347.751848,52.5985041 344.25308,52.5985041 C341.345653,52.5985041 339.177402,53.633351 337.009152,53.633351 C335.925026,53.633351 334.693066,53.3869589 333.214713,52.6477825 L333.214713,75.7100846 C333.214713,78.9131821 339.620908,78.9131821 339.620908,78.9131821 Z M338.290391,40.0325062 C330.849349,42.7428195 334.348117,45.2067407 340.705033,49.9374693 L342.183386,49.9374693 C348.540303,45.1574622 351.940514,42.7428195 344.54875,40.0325062 C345.977825,42.2993137 341.44421,45.4531328 341.44421,45.4531328 C341.44421,45.4531328 336.812038,42.2007568 338.290391,40.0325062 Z M353.813094,75.7100846 C353.813094,78.9131821 360.219289,78.9131821 360.219289,78.9131821 L360.219289,56.0479937 C360.219289,52.8941747 354.207321,52.8448962 353.813094,52.8448962 L353.813094,75.7100846 Z M353.960929,47.8184971 C353.960929,48.508395 354.749384,49.2475714 355.784231,49.2475714 L360.120732,49.2475714 L360.120732,45.1574622 C360.120732,44.4675643 359.085885,43.728388 358.29743,43.728388 L353.960929,43.728388 L353.960929,47.8184971 Z M366.231257,77.040602 C366.231257,77.8783352 367.118268,78.5682331 368.202394,78.5682331 L372.193946,78.5682331 L372.193946,73.9360613 C372.193946,73.196885 371.306934,72.4084302 370.272087,72.4084302 L366.231257,72.4084302 L366.231257,77.040602 Z M397.325942,69.2546111 C397.276663,72.1620381 394.122844,74.2810103 389.835621,74.2810103 C385.893347,74.2810103 384.070046,72.7533792 384.070046,69.2053327 L384.070046,62.5527456 C384.070046,58.413358 386.43541,57.4277896 389.983457,57.4277896 C393.087997,57.4277896 396.291095,59.1525344 396.291095,63.1440867 C397.621612,61.2222282 398.212953,59.5960402 398.212953,58.2655228 C398.212953,53.9290215 392.69377,52.5985041 388.850053,52.5985041 C381.803238,52.5985041 377.713129,55.9001585 377.713129,61.2715066 L377.713129,70.4865717 C377.713129,75.9564767 382.098909,79.1595742 389.096445,79.1595742 C394.714185,79.1595742 398.853573,76.8927667 398.853573,73.2954418 C398.853573,72.1127597 398.360788,70.7822422 397.325942,69.2546111 Z M415.312566,58.0684091 C411.912355,65.0166667 401.465329,68.5154348 401.465329,76.4492609 C401.465329,76.8434883 401.465329,77.2377157 401.761,78.5682331 L419.304118,78.5682331 C423,78.5682331 423,73.6896692 423,73.6896692 L408.462865,73.6896692 C412.06019,68.3183211 420.043295,64.3760472 421.866596,57.7234601 C422.260824,56.195829 422.457937,54.6681979 422.901443,53.1898452 L405.752552,53.1898452 C402.05667,53.1898452 402.05667,58.0684091 402.05667,58.0684091 L415.312566,58.0684091 Z"/>
  </g>
</svg>
