<?xml version="1.0" encoding="UTF-8" standalone="no"?>
<svg width="1416px" height="403px" viewBox="0 0 1416 403" version="1.1" xmlns="http://www.w3.org/2000/svg" xmlns:xlink="http://www.w3.org/1999/xlink" style="background: #FFFFFF;">
    <!-- Generator: Sketch 3.7.2 (28276) - http://www.bohemiancoding.com/sketch -->
    <title>website</title>
    <desc>Created with Sketch.</desc>
    <defs></defs>
    <g id="Page-1" stroke="none" stroke-width="1" fill="none" fill-rule="evenodd">
        <polyline id="Path-1-Copy" stroke="#000000" stroke-width="3" points="-58 237.3125 166.191406 230.101562 176.613281 239.4375 175.570313 193.277344 187.910156 151.105469 197.898437 191.402344 197.855469 200.824219 204.023438 200.824219 204.023438 176.246094 208.195312 154.265625 215.792969 170.769531 222.394531 122 231.46875 176.414062 236.636719 165.035156 238.027344 177.234375 238.027344 190.742188 256.785156 190.4375 256.785156 173.804688 261.605469 153.085938 266.121094 174.761719 266.121094 187.835938 317.800781 187.835938 325.09375 212.457031 345.335938 220.140625 348.421875 227.828125 369.484375 227.4375 379.601562 242.765625"></polyline>
        <path d="M380,242.234375 L1028.53125,242.234375 L1027.74292,274.208984 C1027.74292,274.208984 1028.88914,273.747314 1031.97949,273.747314 C1034.69092,273.747314 1036.33008,274.292969 1036.33008,274.292969 L1036.33008,279.287109 L1074.84766,275.208984 L1074.84766,270.666016 C1074.84766,270.666016 1076.99121,267.671875 1083.42383,267.671875 C1087.41602,267.671875 1090.47217,268.572754 1091.39648,268.929688 L1091.39648,274.208984 L1134.8457,265.392578 L1172.79492,270.060547 L1172.79492,264.912109 C1172.79492,264.912109 1179.35493,263.500377 1182.50977,263.970955 C1185.52225,264.420299 1191.29688,267.671875 1191.29688,267.671875 L1191.29688,273.080078 L1235.02539,276.703125 L1235.02539,271.6875 C1235.02539,271.6875 1238.46387,269.959961 1243.64771,270.312988 C1248.83154,270.666016 1252.46289,274.208984 1252.46289,274.208984 L1251.35742,228 L1782.02344,242.234375" id="Path-3-Copy" stroke="#000000" stroke-width="3"></path>
        <path d="M743.722,338.39 C747.908,338.39 751.444,336.024 751.444,332.176 C751.444,330.33 750.508,328.848 748.818,327.834 C748.61,327.704 748.584,327.418 748.792,327.262 C750.248,326.092 750.872,324.532 750.872,322.972 C750.872,319.462 747.414,317.33 743.852,317.33 C740.42,317.33 736.962,319.41 736.962,323.18 C736.962,323.596 737.17,323.7 737.456,323.7 L741.07,323.7 C741.59,323.7 741.798,323.518 741.98,323.024 C742.292,322.27 743.202,322.088 743.826,322.088 C745.1,322.088 745.724,322.894 745.724,323.622 C745.724,324.48 745.022,325.494 741.824,325.624 C741.46,325.624 741.2,325.91 741.2,326.248 L741.2,329.212 C741.2,329.55 741.486,329.836 741.824,329.836 C745.074,329.94 746.088,330.746 746.088,331.734 C746.088,332.748 745.23,333.372 743.54,333.372 C742.552,333.372 741.382,333.112 739.874,332.41 C739.562,332.254 739.172,332.358 738.964,332.67 L736.858,335.868 C736.676,336.154 736.78,336.544 737.066,336.674 C739.328,337.844 741.642,338.39 743.722,338.39 L743.722,338.39 Z M756.436,338.442 C758.23,338.442 759.712,336.96 759.712,335.166 C759.712,333.372 758.23,331.89 756.436,331.89 C754.642,331.89 753.16,333.372 753.16,335.166 C753.16,336.96 754.642,338.442 756.436,338.442 L756.436,338.442 Z M762.702,327.106 C762.364,327.106 762.078,327.392 762.078,327.73 L762.078,331.344 C762.078,331.682 762.364,331.968 762.702,331.968 L779.108,331.968 C779.446,331.968 779.732,331.682 779.732,331.344 L779.732,327.73 C779.732,327.392 779.446,327.106 779.108,327.106 L762.702,327.106 Z M795.878,335.036 C795.878,334.75 796.112,334.516 796.398,334.516 L797.23,334.516 C797.568,334.516 797.854,334.23 797.854,333.892 L797.854,330.278 C797.854,329.94 797.568,329.654 797.23,329.654 L796.398,329.654 C796.112,329.654 795.878,329.42 795.878,329.134 L795.878,326.456 C795.878,326.118 795.592,325.832 795.254,325.832 L791.484,325.832 C791.146,325.832 790.86,326.118 790.86,326.456 L790.86,329.134 C790.86,329.42 790.626,329.654 790.34,329.654 L788.26,329.654 C788.026,329.654 787.87,329.42 788,329.212 L794.188,318.266 C794.344,318.006 794.162,317.72 793.876,317.72 L789.352,317.72 C788.988,317.72 788.598,317.928 788.416,318.266 L781.916,329.94 C781.734,330.278 781.604,330.746 781.604,331.11 L781.604,333.892 C781.604,334.23 781.89,334.516 782.228,334.516 L790.34,334.516 C790.626,334.516 790.86,334.75 790.86,335.036 L790.86,337.376 C790.86,337.714 791.146,338 791.484,338 L795.254,338 C795.592,338 795.878,337.714 795.878,337.376 L795.878,335.036 Z M802.716,338.442 C804.51,338.442 805.992,336.96 805.992,335.166 C805.992,333.372 804.51,331.89 802.716,331.89 C800.922,331.89 799.44,333.372 799.44,335.166 C799.44,336.96 800.922,338.442 802.716,338.442 L802.716,338.442 Z M825.544,333.372 C822.502,333.372 820.032,330.928 820.032,327.86 C820.032,324.792 822.502,322.348 825.544,322.348 C827.442,322.348 829.106,323.284 830.094,324.688 C830.302,325.026 830.666,325.13 831.004,324.948 L834.592,323.362 C834.878,323.232 834.982,322.816 834.826,322.556 C832.954,319.436 829.496,317.33 825.544,317.33 C819.694,317.33 814.78,322.062 814.78,327.86 C814.78,333.658 819.694,338.39 825.544,338.39 C829.496,338.39 833.006,336.284 834.852,333.112 C835.034,332.852 834.904,332.436 834.618,332.332 L831.004,330.746 C830.666,330.59 830.302,330.694 830.094,331.032 C829.106,332.436 827.468,333.372 825.544,333.372 L825.544,333.372 Z M831.03,312.208 C831.264,312.052 831.29,311.714 831.108,311.48 L829.548,309.53 C829.366,309.296 829.028,309.244 828.768,309.4 L826.064,311.168 C825.752,311.376 825.336,311.376 825.024,311.168 L822.268,309.4 C822.008,309.244 821.696,309.296 821.514,309.53 L819.928,311.48 C819.772,311.714 819.798,312.052 820.032,312.208 L825.128,316.238 C825.362,316.42 825.726,316.42 825.96,316.238 L831.03,312.208 Z M851.934,338 C852.272,338 852.558,337.714 852.558,337.376 L852.558,333.606 C852.558,333.268 852.272,332.982 851.934,332.982 L842.704,332.982 C842.418,332.982 842.184,332.748 842.184,332.462 L842.184,330.902 C842.184,330.616 842.418,330.382 842.704,330.382 L850.088,330.382 C850.426,330.382 850.712,330.096 850.712,329.758 L850.712,326.3 C850.712,325.962 850.426,325.676 850.088,325.676 L842.704,325.676 C842.418,325.676 842.184,325.442 842.184,325.156 L842.184,323.284 C842.184,322.998 842.418,322.764 842.704,322.764 L851.934,322.764 C852.272,322.764 852.558,322.478 852.558,322.14 L852.558,318.344 C852.558,318.006 852.272,317.72 851.934,317.72 L837.608,317.72 C837.27,317.72 836.984,318.006 836.984,318.344 L836.984,337.376 C836.984,337.714 837.27,338 837.608,338 L851.934,338 Z M855.08,337.376 C855.08,337.714 855.366,338 855.704,338 L859.63,338 C859.968,338 860.254,337.714 860.254,337.376 L860.254,333.086 C860.254,332.8 860.488,332.566 860.774,332.566 L862.386,332.566 C862.698,332.566 863.036,332.722 863.218,332.982 L866.39,337.48 C866.624,337.792 866.988,338 867.378,338 L872.344,338 C872.604,338 872.76,337.714 872.604,337.48 L868.886,332.306 C868.73,332.072 868.782,331.76 869.042,331.63 C871.46,330.304 872.578,327.808 872.578,325.13 C872.578,321.1 870.186,317.72 864.986,317.72 L855.704,317.72 C855.366,317.72 855.08,318.006 855.08,318.344 L855.08,337.376 Z M867.56,325.182 C867.56,326.586 866.78,327.86 864.7,327.86 L860.774,327.86 C860.488,327.86 860.254,327.626 860.254,327.34 L860.254,322.972 C860.254,322.686 860.488,322.452 860.774,322.452 L864.7,322.452 C866.78,322.452 867.56,323.622 867.56,325.182 L867.56,325.182 Z M893.638,318.292 C893.742,318.032 893.56,317.72 893.248,317.72 L888.828,317.72 C888.464,317.72 888.126,317.954 887.996,318.292 L883.264,330.85 C883.212,331.032 882.952,331.032 882.9,330.85 L878.194,318.292 C878.064,317.954 877.726,317.72 877.362,317.72 L872.942,317.72 C872.63,317.72 872.448,318.032 872.552,318.292 L880.274,337.428 C880.404,337.766 880.768,338 881.132,338 L885.032,338 C885.396,338 885.76,337.766 885.89,337.428 L893.638,318.292 Z M900.606,327.21 C900.606,327.028 900.814,326.95 900.918,327.106 L909.264,337.506 C909.498,337.818 909.888,338 910.278,338 L913.424,338 C913.762,338 914.048,337.714 914.048,337.376 L914.048,318.344 C914.048,318.006 913.762,317.72 913.424,317.72 L909.498,317.72 C909.16,317.72 908.874,318.006 908.874,318.344 L908.874,328.536 C908.874,328.718 908.666,328.796 908.562,328.64 L900.216,318.214 C899.982,317.902 899.592,317.72 899.202,317.72 L896.056,317.72 C895.718,317.72 895.432,318.006 895.432,318.344 L895.432,337.376 C895.432,337.714 895.718,338 896.056,338 L899.982,338 C900.32,338 900.606,337.714 900.606,337.376 L900.606,327.21 Z M915.842,337.428 C915.738,337.688 915.92,338 916.232,338 L920.652,338 C921.016,338 921.354,337.766 921.484,337.428 L922.212,335.53 C922.316,335.244 922.602,335.036 922.914,335.036 L929.856,335.036 C930.168,335.036 930.454,335.244 930.558,335.53 L931.286,337.428 C931.416,337.766 931.754,338 932.118,338 L936.538,338 C936.85,338 937.032,337.688 936.928,337.428 L929.206,318.292 C929.076,317.954 928.712,317.72 928.348,317.72 L924.448,317.72 C924.084,317.72 923.72,317.954 923.59,318.292 L915.842,337.428 Z M924.682,330.33 C924.422,330.33 924.266,330.07 924.344,329.836 L926.216,324.87 C926.268,324.688 926.528,324.688 926.58,324.87 L928.426,329.836 C928.504,330.07 928.348,330.33 928.088,330.33 L924.682,330.33 Z M953.49,332.826 C953.308,332.826 953.204,332.592 953.36,332.488 L954.686,331.266 C956.376,329.654 958.872,327.522 958.872,324.09 C958.872,319.878 955.544,317.33 951.748,317.33 C948.264,317.33 944.312,319.644 944.312,324.662 C944.312,325.13 944.494,325.26 944.78,325.26 L948.94,325.26 C949.252,325.26 949.382,325.13 949.382,324.662 C949.382,323.18 950.344,322.374 951.67,322.374 C952.892,322.374 953.62,323.076 953.62,324.09 C953.62,325.156 952.892,325.884 951.228,327.444 L944.52,333.658 C944.234,333.918 944.052,334.308 944.052,334.698 L944.052,337.376 C944.052,337.714 944.338,338 944.676,338 L958.118,338 C958.456,338 958.742,337.714 958.742,337.376 L958.742,333.45 C958.742,333.112 958.456,332.826 958.118,332.826 L953.49,332.826 Z M969.298,338.39 C974.94,338.39 977.904,333.294 977.904,327.86 C977.904,322.452 974.94,317.33 969.298,317.33 C963.656,317.33 960.77,322.452 960.77,327.86 C960.77,333.294 963.656,338.39 969.298,338.39 L969.298,338.39 Z M969.298,322.374 C971.222,322.374 972.704,324.428 972.704,327.86 C972.704,331.292 971.222,333.372 969.298,333.372 C967.374,333.372 965.944,331.292 965.944,327.86 C965.944,324.428 967.374,322.374 969.298,322.374 L969.298,322.374 Z M981.778,323.882 C982.012,323.778 982.272,323.96 982.272,324.22 L982.272,337.376 C982.272,337.714 982.558,338 982.896,338 L986.822,338 C987.16,338 987.446,337.714 987.446,337.376 L987.446,318.344 C987.446,318.006 987.16,317.72 986.822,317.72 L984.586,317.72 C984.222,317.72 983.702,317.798 983.364,317.928 L980.114,319.046 C979.75,319.176 979.516,319.514 979.516,319.878 L979.516,324.038 C979.516,324.35 979.802,324.558 980.114,324.454 L981.778,323.882 Z M997.846,317.72 C997.456,317.72 997.066,317.928 996.858,318.214 L991.528,325.468 C990.202,327.288 989.604,328.978 989.604,330.746 C989.604,334.906 993.036,338.39 997.43,338.39 C1001.668,338.39 1005.1,334.984 1005.1,330.616 C1005.1,326.976 1002.656,324.532 999.432,324.038 C999.198,324.012 999.068,323.752 999.224,323.57 L1003.124,318.214 C1003.28,318.006 1003.124,317.72 1002.864,317.72 L997.846,317.72 Z M995.22,329.03 C995.766,328.38 996.468,327.964 997.352,327.964 C998.86,327.964 1000.03,329.16 1000.03,330.616 C1000.03,332.124 998.86,333.32 997.378,333.32 C995.87,333.32 994.674,332.176 994.674,330.538 C994.674,330.018 994.804,329.524 995.22,329.03 L995.22,329.03 Z M1019.27,338 C1019.608,338 1019.894,337.714 1019.894,337.376 L1019.894,333.918 C1019.894,333.632 1020.128,333.398 1020.414,333.398 L1023.638,333.398 C1029.02,333.398 1031.594,329.784 1031.594,325.494 C1031.594,321.412 1029.02,317.72 1023.638,317.72 L1015.318,317.72 C1014.98,317.72 1014.694,318.006 1014.694,318.344 L1014.694,337.376 C1014.694,337.714 1014.98,338 1015.318,338 L1019.27,338 Z M1026.342,325.52 C1026.342,327.314 1025.536,328.666 1023.352,328.666 L1020.414,328.666 C1020.128,328.666 1019.894,328.432 1019.894,328.146 L1019.894,322.972 C1019.894,322.686 1020.128,322.452 1020.414,322.452 L1023.352,322.452 C1025.536,322.452 1026.342,323.908 1026.342,325.52 L1026.342,325.52 Z M1030.528,337.428 C1030.424,337.688 1030.606,338 1030.918,338 L1035.338,338 C1035.702,338 1036.04,337.766 1036.17,337.428 L1036.898,335.53 C1037.002,335.244 1037.288,335.036 1037.6,335.036 L1044.542,335.036 C1044.854,335.036 1045.14,335.244 1045.244,335.53 L1045.972,337.428 C1046.102,337.766 1046.44,338 1046.804,338 L1051.224,338 C1051.536,338 1051.718,337.688 1051.614,337.428 L1043.892,318.292 C1043.762,317.954 1043.398,317.72 1043.034,317.72 L1039.134,317.72 C1038.77,317.72 1038.406,317.954 1038.276,318.292 L1030.528,337.428 Z M1039.368,330.33 C1039.108,330.33 1038.952,330.07 1039.03,329.836 L1040.902,324.87 C1040.954,324.688 1041.214,324.688 1041.266,324.87 L1043.112,329.836 C1043.19,330.07 1043.034,330.33 1042.774,330.33 L1039.368,330.33 Z M1053.408,337.376 C1053.408,337.714 1053.694,338 1054.032,338 L1057.958,338 C1058.296,338 1058.582,337.714 1058.582,337.376 L1058.582,333.086 C1058.582,332.8 1058.816,332.566 1059.102,332.566 L1060.714,332.566 C1061.026,332.566 1061.364,332.722 1061.546,332.982 L1064.718,337.48 C1064.952,337.792 1065.316,338 1065.706,338 L1070.672,338 C1070.932,338 1071.088,337.714 1070.932,337.48 L1067.214,332.306 C1067.058,332.072 1067.11,331.76 1067.37,331.63 C1069.788,330.304 1070.906,327.808 1070.906,325.13 C1070.906,321.1 1068.514,317.72 1063.314,317.72 L1054.032,317.72 C1053.694,317.72 1053.408,318.006 1053.408,318.344 L1053.408,337.376 Z M1065.888,325.182 C1065.888,326.586 1065.108,327.86 1063.028,327.86 L1059.102,327.86 C1058.816,327.86 1058.582,327.626 1058.582,327.34 L1058.582,322.972 C1058.582,322.686 1058.816,322.452 1059.102,322.452 L1063.028,322.452 C1065.108,322.452 1065.888,323.622 1065.888,325.182 L1065.888,325.182 Z M1071.608,337.428 C1071.504,337.688 1071.686,338 1071.998,338 L1076.418,338 C1076.782,338 1077.12,337.766 1077.25,337.428 L1077.978,335.53 C1078.082,335.244 1078.368,335.036 1078.68,335.036 L1085.622,335.036 C1085.934,335.036 1086.22,335.244 1086.324,335.53 L1087.052,337.428 C1087.182,337.766 1087.52,338 1087.884,338 L1092.304,338 C1092.616,338 1092.798,337.688 1092.694,337.428 L1084.972,318.292 C1084.842,317.954 1084.478,317.72 1084.114,317.72 L1080.214,317.72 C1079.85,317.72 1079.486,317.954 1079.356,318.292 L1071.608,337.428 Z M1080.448,330.33 C1080.188,330.33 1080.032,330.07 1080.11,329.836 L1081.982,324.87 C1082.034,324.688 1082.294,324.688 1082.346,324.87 L1084.192,329.836 C1084.27,330.07 1084.114,330.33 1083.854,330.33 L1080.448,330.33 Z M1108.762,338 C1109.1,338 1109.386,337.714 1109.386,337.376 L1109.386,333.606 C1109.386,333.268 1109.1,332.982 1108.762,332.982 L1100.182,332.982 C1099.896,332.982 1099.662,332.748 1099.662,332.462 L1099.662,318.344 C1099.662,318.006 1099.376,317.72 1099.038,317.72 L1095.112,317.72 C1094.774,317.72 1094.488,318.006 1094.488,318.344 L1094.488,337.376 C1094.488,337.714 1094.774,338 1095.112,338 L1108.762,338 Z M1126.234,338 C1126.572,338 1126.858,337.714 1126.858,337.376 L1126.858,333.606 C1126.858,333.268 1126.572,332.982 1126.234,332.982 L1117.004,332.982 C1116.718,332.982 1116.484,332.748 1116.484,332.462 L1116.484,330.902 C1116.484,330.616 1116.718,330.382 1117.004,330.382 L1124.388,330.382 C1124.726,330.382 1125.012,330.096 1125.012,329.758 L1125.012,326.3 C1125.012,325.962 1124.726,325.676 1124.388,325.676 L1117.004,325.676 C1116.718,325.676 1116.484,325.442 1116.484,325.156 L1116.484,323.284 C1116.484,322.998 1116.718,322.764 1117.004,322.764 L1126.234,322.764 C1126.572,322.764 1126.858,322.478 1126.858,322.14 L1126.858,318.344 C1126.858,318.006 1126.572,317.72 1126.234,317.72 L1111.908,317.72 C1111.57,317.72 1111.284,318.006 1111.284,318.344 L1111.284,337.376 C1111.284,337.714 1111.57,338 1111.908,338 L1126.234,338 Z M1143.654,338 C1143.992,338 1144.278,337.714 1144.278,337.376 L1144.278,333.606 C1144.278,333.268 1143.992,332.982 1143.654,332.982 L1135.074,332.982 C1134.788,332.982 1134.554,332.748 1134.554,332.462 L1134.554,318.344 C1134.554,318.006 1134.268,317.72 1133.93,317.72 L1130.004,317.72 C1129.666,317.72 1129.38,318.006 1129.38,318.344 L1129.38,337.376 C1129.38,337.714 1129.666,338 1130.004,338 L1143.654,338 Z M1151.35,327.21 C1151.35,327.028 1151.558,326.95 1151.662,327.106 L1160.008,337.506 C1160.242,337.818 1160.632,338 1161.022,338 L1164.168,338 C1164.506,338 1164.792,337.714 1164.792,337.376 L1164.792,318.344 C1164.792,318.006 1164.506,317.72 1164.168,317.72 L1160.242,317.72 C1159.904,317.72 1159.618,318.006 1159.618,318.344 L1159.618,328.536 C1159.618,328.718 1159.41,328.796 1159.306,328.64 L1150.96,318.214 C1150.726,317.902 1150.336,317.72 1149.946,317.72 L1146.8,317.72 C1146.462,317.72 1146.176,318.006 1146.176,318.344 L1146.176,337.376 C1146.176,337.714 1146.462,338 1146.8,338 L1150.726,338 C1151.064,338 1151.35,337.714 1151.35,337.376 L1151.35,327.21 Z M1167.912,337.376 C1167.912,337.714 1168.198,338 1168.536,338 L1172.488,338 C1172.826,338 1173.112,337.714 1173.112,337.376 L1173.112,318.344 C1173.112,318.006 1172.826,317.72 1172.488,317.72 L1168.536,317.72 C1168.198,317.72 1167.912,318.006 1167.912,318.344 L1167.912,337.376 Z M1166.274,313.404 C1166.04,313.586 1165.962,313.924 1166.118,314.158 L1167.34,316.29 C1167.496,316.524 1167.808,316.628 1168.068,316.524 L1174.672,313.482 C1174.906,313.378 1175.01,313.066 1174.88,312.832 L1172.878,309.348 C1172.748,309.114 1172.41,309.036 1172.202,309.218 L1166.274,313.404 Z M1188.114,338 C1188.452,338 1188.738,337.714 1188.738,337.376 L1188.738,333.918 C1188.738,333.632 1188.972,333.398 1189.258,333.398 L1192.482,333.398 C1197.864,333.398 1200.438,329.784 1200.438,325.494 C1200.438,321.412 1197.864,317.72 1192.482,317.72 L1184.162,317.72 C1183.824,317.72 1183.538,318.006 1183.538,318.344 L1183.538,337.376 C1183.538,337.714 1183.824,338 1184.162,338 L1188.114,338 Z M1195.186,325.52 C1195.186,327.314 1194.38,328.666 1192.196,328.666 L1189.258,328.666 C1188.972,328.666 1188.738,328.432 1188.738,328.146 L1188.738,322.972 C1188.738,322.686 1188.972,322.452 1189.258,322.452 L1192.196,322.452 C1194.38,322.452 1195.186,323.908 1195.186,325.52 L1195.186,325.52 Z M1212.242,338.39 C1218.17,338.39 1223.006,333.658 1223.006,327.86 C1223.006,322.062 1218.17,317.33 1212.242,317.33 C1206.392,317.33 1201.478,322.062 1201.478,327.86 C1201.478,333.658 1206.392,338.39 1212.242,338.39 L1212.242,338.39 Z M1212.242,322.348 C1215.362,322.348 1217.754,324.792 1217.754,327.86 C1217.754,330.928 1215.362,333.372 1212.242,333.372 C1209.2,333.372 1206.73,330.928 1206.73,327.86 C1206.73,324.792 1209.2,322.348 1212.242,322.348 L1212.242,322.348 Z M1239.438,338 C1239.776,338 1240.062,337.714 1240.062,337.376 L1240.062,333.606 C1240.062,333.268 1239.776,332.982 1239.438,332.982 L1230.858,332.982 C1230.572,332.982 1230.338,332.748 1230.338,332.462 L1230.338,318.344 C1230.338,318.006 1230.052,317.72 1229.714,317.72 L1225.788,317.72 C1225.45,317.72 1225.164,318.006 1225.164,318.344 L1225.164,337.376 C1225.164,337.714 1225.45,338 1225.788,338 L1239.438,338 Z M1241.96,337.376 C1241.96,337.714 1242.246,338 1242.584,338 L1246.536,338 C1246.874,338 1247.16,337.714 1247.16,337.376 L1247.16,318.344 C1247.16,318.006 1246.874,317.72 1246.536,317.72 L1242.584,317.72 C1242.246,317.72 1241.96,318.006 1241.96,318.344 L1241.96,337.376 Z M1258.08,338.39 C1262.708,338.39 1266.14,336.31 1266.14,332.358 C1266.14,327.912 1261.356,326.248 1258.548,325.26 C1256.13,324.428 1255.194,324.012 1255.194,323.206 C1255.194,322.53 1255.896,321.828 1257.664,321.828 C1259.38,321.828 1260.368,322.608 1260.68,323.466 C1260.836,323.934 1261.07,324.168 1261.564,324.168 L1265.178,324.168 C1265.542,324.168 1265.88,323.804 1265.854,323.44 C1265.594,319.8 1262.292,317.33 1257.56,317.33 C1252.932,317.33 1249.63,319.748 1249.63,323.622 C1249.63,327.808 1253.868,329.368 1257.092,330.434 C1259.536,331.266 1260.55,331.786 1260.55,332.644 C1260.55,333.242 1259.926,333.892 1257.976,333.892 C1256.156,333.892 1255.09,333.268 1254.726,332.592 C1254.414,332.046 1254.284,331.916 1253.686,331.916 L1250.176,331.916 C1249.812,331.916 1249.474,332.28 1249.5,332.644 C1249.864,336.362 1253.478,338.39 1258.08,338.39 L1258.08,338.39 Z" id="3.—4.-června-2016-pa-copy" fill="#000000"></path>
        <path d="M196.136,338 C196.474,338 196.76,337.714 196.76,337.376 L196.76,333.918 C196.76,333.632 196.994,333.398 197.28,333.398 L200.504,333.398 C205.886,333.398 208.46,329.784 208.46,325.494 C208.46,321.412 205.886,317.72 200.504,317.72 L192.184,317.72 C191.846,317.72 191.56,318.006 191.56,318.344 L191.56,337.376 C191.56,337.714 191.846,338 192.184,338 L196.136,338 Z M203.208,325.52 C203.208,327.314 202.402,328.666 200.218,328.666 L197.28,328.666 C196.994,328.666 196.76,328.432 196.76,328.146 L196.76,322.972 C196.76,322.686 196.994,322.452 197.28,322.452 L200.218,322.452 C202.402,322.452 203.208,323.908 203.208,325.52 L203.208,325.52 Z M223.904,325.078 C223.904,325.364 223.67,325.598 223.384,325.598 L216.156,325.598 C215.87,325.598 215.636,325.364 215.636,325.078 L215.636,318.344 C215.636,318.006 215.35,317.72 215.012,317.72 L211.086,317.72 C210.748,317.72 210.462,318.006 210.462,318.344 L210.462,337.376 C210.462,337.714 210.748,338 211.086,338 L215.012,338 C215.35,338 215.636,337.714 215.636,337.376 L215.636,330.98 C215.636,330.694 215.87,330.46 216.156,330.46 L223.384,330.46 C223.67,330.46 223.904,330.694 223.904,330.98 L223.904,337.376 C223.904,337.714 224.19,338 224.528,338 L228.48,338 C228.818,338 229.104,337.714 229.104,337.376 L229.104,318.344 C229.104,318.006 228.818,317.72 228.48,317.72 L224.528,317.72 C224.19,317.72 223.904,318.006 223.904,318.344 L223.904,325.078 Z M236.8,338 C237.138,338 237.424,337.714 237.424,337.376 L237.424,333.918 C237.424,333.632 237.658,333.398 237.944,333.398 L241.168,333.398 C246.55,333.398 249.124,329.784 249.124,325.494 C249.124,321.412 246.55,317.72 241.168,317.72 L232.848,317.72 C232.51,317.72 232.224,318.006 232.224,318.344 L232.224,337.376 C232.224,337.714 232.51,338 232.848,338 L236.8,338 Z M243.872,325.52 C243.872,327.314 243.066,328.666 240.882,328.666 L237.944,328.666 C237.658,328.666 237.424,328.432 237.424,328.146 L237.424,322.972 C237.424,322.686 237.658,322.452 237.944,322.452 L240.882,322.452 C243.066,322.452 243.872,323.908 243.872,325.52 L243.872,325.52 Z M262.644,338 C262.982,338 263.268,337.714 263.268,337.376 L263.268,333.918 C263.268,333.632 263.502,333.398 263.788,333.398 L267.012,333.398 C272.394,333.398 274.968,329.784 274.968,325.494 C274.968,321.412 272.394,317.72 267.012,317.72 L258.692,317.72 C258.354,317.72 258.068,318.006 258.068,318.344 L258.068,337.376 C258.068,337.714 258.354,338 258.692,338 L262.644,338 Z M269.716,325.52 C269.716,327.314 268.91,328.666 266.726,328.666 L263.788,328.666 C263.502,328.666 263.268,328.432 263.268,328.146 L263.268,322.972 C263.268,322.686 263.502,322.452 263.788,322.452 L266.726,322.452 C268.91,322.452 269.716,323.908 269.716,325.52 L269.716,325.52 Z M276.97,337.376 C276.97,337.714 277.256,338 277.594,338 L281.52,338 C281.858,338 282.144,337.714 282.144,337.376 L282.144,333.086 C282.144,332.8 282.378,332.566 282.664,332.566 L284.276,332.566 C284.588,332.566 284.926,332.722 285.108,332.982 L288.28,337.48 C288.514,337.792 288.878,338 289.268,338 L294.234,338 C294.494,338 294.65,337.714 294.494,337.48 L290.776,332.306 C290.62,332.072 290.672,331.76 290.932,331.63 C293.35,330.304 294.468,327.808 294.468,325.13 C294.468,321.1 292.076,317.72 286.876,317.72 L277.594,317.72 C277.256,317.72 276.97,318.006 276.97,318.344 L276.97,337.376 Z M289.45,325.182 C289.45,326.586 288.67,327.86 286.59,327.86 L282.664,327.86 C282.378,327.86 282.144,327.626 282.144,327.34 L282.144,322.972 C282.144,322.686 282.378,322.452 282.664,322.452 L286.59,322.452 C288.67,322.452 289.45,323.622 289.45,325.182 L289.45,325.182 Z M295.17,337.428 C295.066,337.688 295.248,338 295.56,338 L299.98,338 C300.344,338 300.682,337.766 300.812,337.428 L301.54,335.53 C301.644,335.244 301.93,335.036 302.242,335.036 L309.184,335.036 C309.496,335.036 309.782,335.244 309.886,335.53 L310.614,337.428 C310.744,337.766 311.082,338 311.446,338 L315.866,338 C316.178,338 316.36,337.688 316.256,337.428 L308.534,318.292 C308.404,317.954 308.04,317.72 307.676,317.72 L303.776,317.72 C303.412,317.72 303.048,317.954 302.918,318.292 L295.17,337.428 Z M304.01,330.33 C303.75,330.33 303.594,330.07 303.672,329.836 L305.544,324.87 C305.596,324.688 305.856,324.688 305.908,324.87 L307.754,329.836 C307.832,330.07 307.676,330.33 307.416,330.33 L304.01,330.33 Z M330.634,330.486 C330.764,330.486 330.894,330.616 330.894,330.746 L330.894,330.824 C330.894,330.954 330.816,331.162 330.738,331.266 C329.776,332.54 328.268,333.372 326.552,333.372 C323.484,333.372 321.04,330.928 321.04,327.86 C321.04,324.792 323.484,322.348 326.552,322.348 C328.086,322.348 329.49,322.972 330.478,323.96 C330.764,324.246 331.128,324.272 331.44,324.064 L334.638,321.906 C334.898,321.724 334.95,321.334 334.742,321.074 C332.766,318.812 329.802,317.33 326.552,317.33 C320.676,317.33 315.788,322.062 315.788,327.86 C315.788,333.658 320.676,338.39 326.552,338.39 C328.424,338.39 330.296,337.74 331.362,336.518 C331.466,336.388 331.674,336.466 331.674,336.622 L331.674,337.376 C331.674,337.714 331.96,338 332.298,338 L335.132,338 C335.47,338 335.756,337.714 335.756,337.376 L335.756,326.794 C335.756,326.456 335.47,326.17 335.132,326.17 L326.604,326.17 C326.266,326.17 325.98,326.456 325.98,326.794 L325.98,329.862 C325.98,330.2 326.266,330.486 326.604,330.486 L330.634,330.486 Z M351.564,328.822 C351.564,331.76 350.134,333.372 347.404,333.372 C344.7,333.372 343.296,331.76 343.296,328.822 L343.296,318.344 C343.296,318.006 343.01,317.72 342.672,317.72 L338.72,317.72 C338.382,317.72 338.096,318.006 338.096,318.344 L338.096,329.134 C338.096,334.36 341.32,338.39 347.404,338.39 C353.462,338.39 356.738,334.36 356.738,329.134 L356.738,318.344 C356.738,318.006 356.452,317.72 356.114,317.72 L352.188,317.72 C351.85,317.72 351.564,318.006 351.564,318.344 L351.564,328.822 Z M374.522,338 C374.86,338 375.146,337.714 375.146,337.376 L375.146,333.606 C375.146,333.268 374.86,332.982 374.522,332.982 L365.292,332.982 C365.006,332.982 364.772,332.748 364.772,332.462 L364.772,330.902 C364.772,330.616 365.006,330.382 365.292,330.382 L372.676,330.382 C373.014,330.382 373.3,330.096 373.3,329.758 L373.3,326.3 C373.3,325.962 373.014,325.676 372.676,325.676 L365.292,325.676 C365.006,325.676 364.772,325.442 364.772,325.156 L364.772,323.284 C364.772,322.998 365.006,322.764 365.292,322.764 L374.522,322.764 C374.86,322.764 375.146,322.478 375.146,322.14 L375.146,318.344 C375.146,318.006 374.86,317.72 374.522,317.72 L360.196,317.72 C359.858,317.72 359.572,318.006 359.572,318.344 L359.572,337.376 C359.572,337.714 359.858,338 360.196,338 L374.522,338 Z M385.754,342.342 C385.754,342.602 385.962,342.81 386.222,342.81 L386.794,342.81 C387.054,342.81 387.262,342.602 387.262,342.342 L387.262,313.352 C387.262,313.092 387.054,312.884 386.794,312.884 L386.222,312.884 C385.962,312.884 385.754,313.092 385.754,313.352 L385.754,342.342 Z M408.92,336.856 C403.954,336.856 399.898,332.826 399.898,327.86 C399.898,322.92 403.954,318.864 408.92,318.864 C412.014,318.864 414.718,320.424 416.356,322.816 C416.512,323.05 416.798,323.102 417.032,322.972 L417.552,322.686 C417.786,322.582 417.838,322.27 417.708,322.088 C415.836,319.228 412.586,317.33 408.92,317.33 C403.07,317.33 398.338,322.062 398.338,327.86 C398.338,333.684 403.07,338.39 408.92,338.39 C412.612,338.39 415.862,336.492 417.734,333.632 C417.864,333.45 417.812,333.138 417.578,333.034 L417.032,332.722 C416.798,332.592 416.512,332.67 416.356,332.878 C414.744,335.296 412.014,336.856 408.92,336.856 L408.92,336.856 Z M430.994,338.39 C436.818,338.39 441.55,333.684 441.55,327.86 C441.55,322.062 436.818,317.33 430.994,317.33 C425.144,317.33 420.412,322.062 420.412,327.86 C420.412,333.684 425.144,338.39 430.994,338.39 L430.994,338.39 Z M430.994,318.864 C435.934,318.864 439.99,322.92 439.99,327.86 C439.99,332.826 435.934,336.856 430.994,336.856 C426.028,336.856 421.972,332.826 421.972,327.86 C421.972,322.92 426.028,318.864 430.994,318.864 L430.994,318.864 Z M447.452,320.736 C447.452,320.606 447.608,320.554 447.686,320.658 L461.206,337.636 C461.388,337.87 461.674,338 461.96,338 L462.402,338 C462.662,338 462.87,337.792 462.87,337.532 L462.87,318.188 C462.87,317.928 462.662,317.72 462.402,317.72 L461.804,317.72 C461.544,317.72 461.336,317.928 461.336,318.188 L461.336,335.01 C461.336,335.14 461.18,335.192 461.102,335.088 L447.582,318.084 C447.4,317.876 447.114,317.72 446.828,317.72 L446.386,317.72 C446.126,317.72 445.918,317.928 445.918,318.188 L445.918,337.532 C445.918,337.792 446.126,338 446.386,338 L446.984,338 C447.244,338 447.452,337.792 447.452,337.532 L447.452,320.736 Z M469.734,338 C469.994,338 470.202,337.792 470.202,337.532 L470.202,329.81 C470.202,329.602 470.358,329.446 470.566,329.446 L480.03,329.446 C480.29,329.446 480.498,329.238 480.498,328.978 L480.498,328.458 C480.498,328.198 480.29,327.99 480.03,327.99 L470.566,327.99 C470.358,327.99 470.202,327.834 470.202,327.626 L470.202,319.592 C470.202,319.384 470.358,319.228 470.566,319.228 L481.616,319.228 C481.876,319.228 482.084,319.02 482.084,318.76 L482.084,318.188 C482.084,317.928 481.876,317.72 481.616,317.72 L469.136,317.72 C468.876,317.72 468.668,317.928 468.668,318.188 L468.668,337.532 C468.668,337.792 468.876,338 469.136,338 L469.734,338 Z M499.946,338 C500.206,338 500.414,337.792 500.414,337.532 L500.414,336.96 C500.414,336.7 500.206,336.492 499.946,336.492 L488.376,336.492 C488.168,336.492 488.012,336.336 488.012,336.128 L488.012,329.134 C488.012,328.926 488.168,328.77 488.376,328.77 L498.1,328.77 C498.36,328.77 498.568,328.562 498.568,328.302 L498.568,327.782 C498.568,327.522 498.36,327.314 498.1,327.314 L488.376,327.314 C488.168,327.314 488.012,327.158 488.012,326.95 L488.012,319.592 C488.012,319.384 488.168,319.228 488.376,319.228 L499.946,319.228 C500.206,319.228 500.414,319.02 500.414,318.76 L500.414,318.188 C500.414,317.928 500.206,317.72 499.946,317.72 L486.946,317.72 C486.686,317.72 486.478,317.928 486.478,318.188 L486.478,337.532 C486.478,337.792 486.686,338 486.946,338 L499.946,338 Z M504.938,337.532 C504.938,337.792 505.146,338 505.406,338 L506.004,338 C506.264,338 506.472,337.792 506.472,337.532 L506.472,331.188 C506.472,330.98 506.628,330.824 506.836,330.824 L513.882,330.824 L514.22,330.824 C514.428,330.824 514.558,330.902 514.688,331.032 L519.368,337.61 C519.524,337.844 519.81,338 520.096,338 L521.032,338 C521.24,338 521.344,337.792 521.24,337.61 L516.378,330.824 C516.274,330.668 516.352,330.46 516.508,330.408 C519.264,329.42 520.798,327.002 520.798,324.246 C520.798,320.736 518.276,317.72 513.882,317.72 L505.406,317.72 C505.146,317.72 504.938,317.928 504.938,318.188 L504.938,337.532 Z M519.29,324.272 C519.29,326.976 517.366,329.368 513.83,329.368 L506.836,329.368 C506.628,329.368 506.472,329.212 506.472,329.004 L506.472,319.54 C506.472,319.332 506.628,319.176 506.836,319.176 L513.83,319.176 C517.366,319.176 519.29,321.594 519.29,324.272 L519.29,324.272 Z M539.05,338 C539.31,338 539.518,337.792 539.518,337.532 L539.518,336.96 C539.518,336.7 539.31,336.492 539.05,336.492 L527.48,336.492 C527.272,336.492 527.116,336.336 527.116,336.128 L527.116,329.134 C527.116,328.926 527.272,328.77 527.48,328.77 L537.204,328.77 C537.464,328.77 537.672,328.562 537.672,328.302 L537.672,327.782 C537.672,327.522 537.464,327.314 537.204,327.314 L527.48,327.314 C527.272,327.314 527.116,327.158 527.116,326.95 L527.116,319.592 C527.116,319.384 527.272,319.228 527.48,319.228 L539.05,319.228 C539.31,319.228 539.518,319.02 539.518,318.76 L539.518,318.188 C539.518,317.928 539.31,317.72 539.05,317.72 L526.05,317.72 C525.79,317.72 525.582,317.928 525.582,318.188 L525.582,337.532 C525.582,337.792 525.79,338 526.05,338 L539.05,338 Z M545.576,320.736 C545.576,320.606 545.732,320.554 545.81,320.658 L559.33,337.636 C559.512,337.87 559.798,338 560.084,338 L560.526,338 C560.786,338 560.994,337.792 560.994,337.532 L560.994,318.188 C560.994,317.928 560.786,317.72 560.526,317.72 L559.928,317.72 C559.668,317.72 559.46,317.928 559.46,318.188 L559.46,335.01 C559.46,335.14 559.304,335.192 559.226,335.088 L545.706,318.084 C545.524,317.876 545.238,317.72 544.952,317.72 L544.51,317.72 C544.25,317.72 544.042,317.928 544.042,318.188 L544.042,337.532 C544.042,337.792 544.25,338 544.51,338 L545.108,338 C545.368,338 545.576,337.792 545.576,337.532 L545.576,320.736 Z M575.918,336.856 C570.952,336.856 566.896,332.826 566.896,327.86 C566.896,322.92 570.952,318.864 575.918,318.864 C579.012,318.864 581.716,320.424 583.354,322.816 C583.51,323.05 583.796,323.102 584.03,322.972 L584.55,322.686 C584.784,322.582 584.836,322.27 584.706,322.088 C582.834,319.228 579.584,317.33 575.918,317.33 C570.068,317.33 565.336,322.062 565.336,327.86 C565.336,333.684 570.068,338.39 575.918,338.39 C579.61,338.39 582.86,336.492 584.732,333.632 C584.862,333.45 584.81,333.138 584.576,333.034 L584.03,332.722 C583.796,332.592 583.51,332.67 583.354,332.878 C581.742,335.296 579.012,336.856 575.918,336.856 L575.918,336.856 Z M602.594,338 C602.854,338 603.062,337.792 603.062,337.532 L603.062,336.96 C603.062,336.7 602.854,336.492 602.594,336.492 L591.024,336.492 C590.816,336.492 590.66,336.336 590.66,336.128 L590.66,329.134 C590.66,328.926 590.816,328.77 591.024,328.77 L600.748,328.77 C601.008,328.77 601.216,328.562 601.216,328.302 L601.216,327.782 C601.216,327.522 601.008,327.314 600.748,327.314 L591.024,327.314 C590.816,327.314 590.66,327.158 590.66,326.95 L590.66,319.592 C590.66,319.384 590.816,319.228 591.024,319.228 L602.594,319.228 C602.854,319.228 603.062,319.02 603.062,318.76 L603.062,318.188 C603.062,317.928 602.854,317.72 602.594,317.72 L589.594,317.72 C589.334,317.72 589.126,317.928 589.126,318.188 L589.126,337.532 C589.126,337.792 589.334,338 589.594,338 L602.594,338 Z" id="PHP-PRAGUE-|-CONFERE" fill="#000000"></path>
    </g>
</svg>