<svg xmlns="http://www.w3.org/2000/svg" width="274" height="54" viewBox="0 0 274 54">
  <g fill="#FFFFFF" fill-rule="evenodd" transform="translate(4 4)">
    <path d="M99.08 30.728C96.04 30.728 93.192 28.168 93.192 24.36L93.192 24.296C93.192 20.52 96.04 17.96 99.08 17.96 102.184 17.96 104.84 20.456 104.84 24.328L104.84 24.392C104.84 28.328 102.248 30.728 99.08 30.728zM90.28 36.968C90.28 37.832 90.952 38.472 91.816 38.472 92.648 38.472 93.288 37.832 93.288 36.968L93.288 29.864C94.6 31.72 96.584 33.384 99.72 33.384 103.848 33.384 107.912 30.056 107.912 24.36L107.912 24.296C107.912 18.6 103.816 15.304 99.72 15.304 96.648 15.304 94.664 16.968 93.288 18.984L93.288 17.032C93.288 16.168 92.616 15.528 91.784 15.528 90.952 15.528 90.28 16.168 90.28 17.032L90.28 36.968zM119.912 13.352C120.648 13.352 121.096 13.224 121.736 12.648L124.136 10.344C124.424 10.056 124.616 9.8 124.616 9.48 124.616 9 123.528 8.424 122.664 8.424 122.088 8.424 121.672 8.712 121.352 9.224L119.368 12.232C119.272 12.392 119.144 12.616 119.144 12.808 119.144 13.128 119.496 13.352 119.912 13.352zM126.856 30.888C127.112 30.632 127.272 30.312 127.272 29.928 127.272 29.224 126.728 28.68 125.992 28.68 125.64 28.68 125.416 28.808 125.192 28.968 123.976 30.088 122.472 30.856 120.456 30.856 117.576 30.856 115.112 28.904 114.728 25.448L126.728 25.448C127.496 25.448 128.136 24.84 128.136 24.008 128.136 19.624 125.288 15.304 120.04 15.304 115.208 15.304 111.688 19.336 111.688 24.328L111.688 24.392C111.688 29.768 115.592 33.384 120.392 33.384 123.272 33.384 125.224 32.392 126.856 30.888zM114.696 23.304C115.048 20.136 117.128 17.832 120.008 17.832 123.176 17.832 124.904 20.328 125.16 23.304L114.696 23.304zM132.776 31.656C132.776 32.52 133.448 33.16 134.312 33.16 135.144 33.16 135.784 32.52 135.784 31.656L135.784 23.144C135.784 20.04 137.832 18.056 140.584 18.056 143.4 18.056 145.032 19.912 145.032 22.984L145.032 31.656C145.032 32.52 145.704 33.16 146.568 33.16 147.4 33.16 148.04 32.52 148.04 31.656L148.04 22.152C148.04 18.088 145.672 15.304 141.544 15.304 138.664 15.304 136.936 16.808 135.784 18.6L135.784 10.056C135.784 9.224 135.112 8.552 134.28 8.552 133.448 8.552 132.776 9.224 132.776 10.056L132.776 31.656zM160.424 13.352C161.16 13.352 161.608 13.224 162.248 12.648L164.648 10.344C164.936 10.056 165.128 9.8 165.128 9.48 165.128 9 164.04 8.424 163.176 8.424 162.6 8.424 162.184 8.712 161.864 9.224L159.88 12.232C159.784 12.392 159.656 12.616 159.656 12.808 159.656 13.128 160.008 13.352 160.424 13.352zM159.368 31.048C157.16 31.048 155.304 29.864 155.304 27.848L155.304 27.784C155.304 25.736 157.032 24.424 160.072 24.424 162.024 24.424 163.624 24.776 164.808 25.16L164.808 26.664C164.808 29.256 162.408 31.048 159.368 31.048zM158.696 33.384C161.64 33.384 163.56 32.04 164.744 30.536L164.744 31.816C164.744 32.552 165.352 33.16 166.216 33.16 167.016 33.16 167.656 32.52 167.656 31.688L167.656 22.504C167.656 20.296 167.08 18.568 165.864 17.352 164.616 16.104 162.728 15.432 160.232 15.432 157.992 15.432 156.296 15.88 154.6 16.584 154.184 16.744 153.768 17.192 153.768 17.8 153.768 18.504 154.376 19.08 155.08 19.08 155.24 19.08 155.4 19.048 155.592 18.984 156.808 18.44 158.216 18.088 159.88 18.088 162.984 18.088 164.776 19.624 164.776 22.504L164.776 23.08C163.272 22.632 161.8 22.344 159.656 22.344 155.336 22.344 152.328 24.264 152.328 27.944L152.328 28.008C152.328 31.528 155.464 33.384 158.696 33.384zM181.96 30.728C178.92 30.728 176.072 28.168 176.072 24.36L176.072 24.296C176.072 20.52 178.92 17.96 181.96 17.96 185.064 17.96 187.72 20.456 187.72 24.328L187.72 24.392C187.72 28.328 185.128 30.728 181.96 30.728zM173.16 36.968C173.16 37.832 173.832 38.472 174.696 38.472 175.528 38.472 176.168 37.832 176.168 36.968L176.168 29.864C177.48 31.72 179.464 33.384 182.6 33.384 186.728 33.384 190.792 30.056 190.792 24.36L190.792 24.296C190.792 18.6 186.696 15.304 182.6 15.304 179.528 15.304 177.544 16.968 176.168 18.984L176.168 17.032C176.168 16.168 175.496 15.528 174.664 15.528 173.832 15.528 173.16 16.168 173.16 17.032L173.16 36.968zM195.592 31.656C195.592 32.52 196.264 33.16 197.128 33.16 197.96 33.16 198.6 32.52 198.6 31.656L198.6 28.424 201.896 25.192 207.592 32.488C207.944 32.968 208.296 33.16 208.872 33.16 209.672 33.16 210.312 32.616 210.312 31.784 210.312 31.4 210.184 31.144 209.896 30.76L204.008 23.272 209.352 18.088C209.736 17.704 209.96 17.384 209.96 16.872 209.96 16.168 209.416 15.528 208.616 15.528 208.104 15.528 207.784 15.72 207.368 16.104L198.6 24.968 198.6 10.056C198.6 9.224 197.928 8.552 197.096 8.552 196.264 8.552 195.592 9.224 195.592 10.056L195.592 31.656zM220.648 31.048C218.44 31.048 216.584 29.864 216.584 27.848L216.584 27.784C216.584 25.736 218.312 24.424 221.352 24.424 223.304 24.424 224.904 24.776 226.088 25.16L226.088 26.664C226.088 29.256 223.688 31.048 220.648 31.048zM219.976 33.384C222.92 33.384 224.84 32.04 226.024 30.536L226.024 31.816C226.024 32.552 226.632 33.16 227.496 33.16 228.296 33.16 228.936 32.52 228.936 31.688L228.936 22.504C228.936 20.296 228.36 18.568 227.144 17.352 225.896 16.104 224.008 15.432 221.512 15.432 219.272 15.432 217.576 15.88 215.88 16.584 215.464 16.744 215.048 17.192 215.048 17.8 215.048 18.504 215.656 19.08 216.36 19.08 216.52 19.08 216.68 19.048 216.872 18.984 218.088 18.44 219.496 18.088 221.16 18.088 224.264 18.088 226.056 19.624 226.056 22.504L226.056 23.08C224.552 22.632 223.08 22.344 220.936 22.344 216.616 22.344 213.608 24.264 213.608 27.944L213.608 28.008C213.608 31.528 216.744 33.384 219.976 33.384zM238.984 10.92L237.096 9.224C236.424 8.648 235.944 8.52 235.208 8.52 234.792 8.52 234.472 8.744 234.472 9.064 234.472 9.256 234.6 9.448 234.76 9.672L237.064 12.52C237.448 13 237.832 13.32 238.568 13.32L239.336 13.32C240.072 13.32 240.456 13 240.84 12.52L243.144 9.672C243.304 9.448 243.432 9.256 243.432 9.064 243.432 8.744 243.144 8.52 242.728 8.52 242.024 8.52 241.544 8.648 240.872 9.224L238.984 10.92zM234.44 31.656C234.44 32.52 235.112 33.16 235.976 33.16 236.808 33.16 237.448 32.488 237.448 31.656L237.448 25.992C237.448 21.288 239.976 18.888 243.144 18.44 243.88 18.344 244.424 17.768 244.424 16.968 244.424 16.104 243.848 15.432 242.92 15.432 240.872 15.432 238.632 17.16 237.448 19.816L237.448 17.032C237.448 16.168 236.776 15.528 235.944 15.528 235.112 15.528 234.44 16.2 234.44 17.032L234.44 31.656zM248.232 10.856C248.232 11.784 249 12.392 249.96 12.392 250.952 12.392 251.72 11.784 251.72 10.856L251.72 10.472C251.72 9.544 250.952 8.936 249.96 8.936 249 8.936 248.232 9.544 248.232 10.472L248.232 10.856zM248.488 31.656C248.488 32.52 249.16 33.16 249.992 33.16 250.824 33.16 251.464 32.52 251.464 31.656L251.464 17.032C251.464 16.168 250.792 15.528 249.96 15.528 249.128 15.528 248.488 16.2 248.488 17.032L248.488 31.656zM35.6404944 45.7495986L26.893343 45.7495986 22.6393205 28.3825314C25.7407983 26.5316578 28.8422761 24.6806117 31.9439265 22.8297381L39.8915821 38.1829423 35.6404944 45.7495986zM54.7897245 45.7495986L44.4515227 45.7495986 64.7570955 21.6136619 54.7897245 45.7495986zM44.4515227 7.16593725L64.6752641 20.5464013 64.6752641 20.7007415 44.0527243 45.4381388 32.5008632 22.4974061 44.369864 15.4141591C44.369864 15.3823933 44.4244182 15.3817027 44.4515227 15.3654746L44.4515227 7.16593725zM8.70801395 43.0829837L3.08846074 40.7860429.699658173 35.0760263 9.48263241 34.4141763 8.70801395 43.0829837zM16.0116187 32.6132303L16.0483392 32.6132303 9.18011532 43.0829837 11.3080934 15.4978895 16.0116187 32.6132303zM4.12298874 34.4141763L.699658173 34.6963046.242904496 22.3758675 4.12298874 34.4141763zM20.291589 31.9658302L16.5050929 31.9658302 11.5929494 14.2243241 16.2583558 7.08151629 35.1453629.785335082 20.291589 31.9658302zM35.9089497.7495986L43.7224639 3.2357874 43.7224639 15.0466085C43.7224639 15.0466085 23.014122 27.493608 23.0738554 27.3691345L35.8462813.821934765 35.9089497.7495986zM18.9670948 18.7212511C20.2166632 18.7212511 21.2312686 19.7358565 21.2312686 20.9854249 21.2312686 22.2349933 20.2166632 23.2495986 18.9670948 23.2495986 17.7173538 23.2495986 16.7029038 22.2349933 16.7029038 20.9854249 16.7029038 19.7358565 17.7173538 18.7212511 18.9670948 18.7212511z"/>
  </g>
</svg>
