<?xml version="1.0" encoding="UTF-8"?>
<svg width="14px" height="14px" viewBox="0 0 14 14" version="1.1" xmlns="http://www.w3.org/2000/svg" xmlns:xlink="http://www.w3.org/1999/xlink">
    <!-- Generator: sketchtool 49.3 (51167) - http://www.bohemiancoding.com/sketch -->
    <title>752A047F-668F-4CE3-AD37-78F88AAD2D82_White</title>
    <desc>Created with sketchtool.</desc>
    <defs></defs>
    <g id="Symbols" stroke="none" stroke-width="1" fill="none" fill-rule="evenodd">
        <g id="element/footer" transform="translate(-1186.000000, -121.000000)" fill="#FFFFFF">
            <g id="content">
                <g>
                    <g id="socials" transform="translate(955.000000, 120.000000)">
                        <g id="RSS-Copy" transform="translate(231.000000, 1.000000)">
                            <path d="M0.233473332,11.9 C0.233473332,10.8691333 1.06926438,10.0333333 2.10012,10.0333333 C3.13097562,10.0333333 3.96676667,10.8691333 3.96676667,11.9 C3.96676667,12.9308667 3.13097562,13.7666667 2.10012,13.7666667 C1.06926438,13.7666667 0.233473332,12.9308667 0.233473332,11.9 Z M13.3,13.7666667 L10.8112933,13.7666667 C10.8112933,7.9338 6.0662775,3.18873333 0.233473332,3.18873333 L0.233473332,0.7 C7.4382628,0.7 13.3,6.5618 13.3,13.7666667 Z M8.94450667,13.7666667 L6.4558,13.7666667 C6.4558,10.3357333 3.66422991,7.5446 0.233333333,7.5446 L0.233333333,5.0554 C5.03668187,5.0554 8.94450667,8.96326667 8.94450667,13.7666667 Z" id="Combined-Shape"></path>
                        </g>
                    </g>
                </g>
            </g>
        </g>
    </g>
</svg>