<?xml version="1.0" encoding="UTF-8"?>
<svg width="16px" height="16px" viewBox="0 0 16 16" version="1.1" xmlns="http://www.w3.org/2000/svg" xmlns:xlink="http://www.w3.org/1999/xlink">
    <!-- Generator: Sketch 49.3 (51167) - http://www.bohemiancoding.com/sketch -->
    <title>Slack_White</title>
    <desc>Created with Sketch.</desc>
    <defs></defs>
    <g id="Symbols" stroke="none" stroke-width="1" fill="none" fill-rule="evenodd">
        <g id="element/footer" transform="translate(-1044.000000, -120.000000)" fill="#FFFFFF">
            <g id="content">
                <g>
                    <g id="socials" transform="translate(955.000000, 120.000000)">
                        <g id="Slack" transform="translate(89.000000, 0.000000)">
                            <path d="M11.4008839,5.38095689 C11.6911872,6.27439693 12.0008621,7.22745571 12.2917619,8.12273331 L13.6041817,7.69615737 C14.2883672,7.47385103 15.0232731,7.84831851 15.2455794,8.532504 C15.4678857,9.21680937 15.0935382,9.9517152 14.4092328,10.1740215 C14.4092328,10.1740215 13.8955211,10.3409351 13.0968377,10.6004405 C13.3626514,11.4185314 13.5350211,11.9490284 13.5369143,11.9548703 C13.7575419,12.6338998 13.3360712,13.3682061 12.6446913,13.5672506 C11.9818492,13.7580215 11.2913087,13.3987822 11.0600094,12.7595616 L10.6198359,11.4052587 C9.72622474,11.6956073 8.77293259,12.005347 7.87744072,12.2963059 C8.14326429,13.1144364 8.31561878,13.6448907 8.31751194,13.6507054 C8.5381396,14.3298548 8.11666886,15.0641611 7.42528897,15.2630857 C6.76244686,15.4539766 6.07190633,15.0947373 5.84060703,14.4555166 L5.40040639,13.1011303 C4.58179805,13.3671069 4.05097347,13.5395769 4.04512974,13.5414707 C3.36610023,13.7620983 2.63179391,13.3406277 2.43274942,12.6492478 C2.24197846,11.9864056 2.6012178,11.2958651 3.24043841,11.0646857 L4.59538643,10.6242868 L3.70405355,7.88188035 C2.88571826,8.14777046 2.35511017,8.32017495 2.34929461,8.3220684 C1.6701452,8.542696 0.935838876,8.12122531 0.736914286,7.42984543 C0.546023419,6.76700326 0.905262763,6.07646277 1.54448337,5.84528337 L2.89902679,5.40501601 L2.47219859,4.0917733 C2.24977237,3.40746791 2.62423981,2.67256206 3.3085452,2.45025574 C3.99273068,2.22794942 4.72763653,2.60241686 4.95006277,3.28660234 C4.95006277,3.28660234 5.11707177,3.80061377 5.37670427,4.5996963 L8.11827985,3.70860176 L7.69160091,2.39581827 C7.46917469,1.71163279 7.84364217,0.976726932 8.52794754,0.754420609 C9.21213303,0.531994379 9.94703886,0.906461827 10.1693452,1.59076721 C10.1693452,1.59076721 10.3362871,2.10454783 10.5958316,2.90332293 L11.9082267,2.47675503 C12.5925321,2.25444871 13.3274379,2.62891616 13.5497443,3.31310164 C13.7720506,3.99740703 13.3975831,4.73231288 12.7133977,4.95461921 C12.7133977,4.95461921 12.1996645,5.1215378 11.4009526,5.38104988 Z M8.92348424,6.18601257 C8.03001361,6.47631333 7.07690641,6.785991 6.1815795,7.07689543 C6.4719211,7.97049176 6.78163892,8.92372254 7.07256889,9.81912803 L9.8146395,8.92787259 L8.92348424,6.18601258 Z" id="Combined-Shape"></path>
                        </g>
                    </g>
                </g>
            </g>
        </g>
    </g>
</svg>