<?xml version="1.0" encoding="UTF-8"?>
<svg width="14px" height="12px" viewBox="0 0 14 12" version="1.1" xmlns="http://www.w3.org/2000/svg" xmlns:xlink="http://www.w3.org/1999/xlink">
    <!-- Generator: Sketch 49.3 (51167) - http://www.bohemiancoding.com/sketch -->
    <title>Twitter_White</title>
    <desc>Created with Sketch.</desc>
    <defs></defs>
    <g id="Symbols" stroke="none" stroke-width="1" fill="none" fill-rule="evenodd">
        <g id="element/footer" transform="translate(-1139.000000, -122.000000)" fill="#FFFFFF">
            <g id="content">
                <g>
                    <g id="socials" transform="translate(955.000000, 120.000000)">
                        <g id="Twitter" transform="translate(184.000000, 2.000000)">
                            <path d="M6.76872157,3.30450038 L6.79893908,3.80277286 L6.29531396,3.74175991 C4.46211854,3.5078769 2.86059067,2.71470845 1.50080285,1.38259221 L0.836017694,0.721618504 L0.664785155,1.20972217 C0.30217507,2.29778658 0.533842624,3.44686394 1.2892803,4.21969474 C1.69218039,4.64678544 1.60152787,4.7077984 0.906525211,4.45357774 C0.664785155,4.37222713 0.453262605,4.31121418 0.433117601,4.34172065 C0.362610084,4.41290244 0.604350141,5.33826563 0.795727685,5.70434337 C1.05761275,6.21278469 1.59145537,6.71105717 2.17566051,7.00595314 L2.66921312,7.23983614 L2.08500798,7.25000497 C1.52094785,7.25000497 1.50080285,7.26017379 1.56123786,7.47371914 C1.76268791,8.13469285 2.5584156,8.83634186 3.4447958,9.14140665 L4.06929095,9.354952 L3.52537582,9.68035444 C2.71957563,10.1481205 1.77276041,10.4125099 0.825945192,10.4328476 C0.372682587,10.4430164 0,10.4836917 0,10.5141982 C0,10.6158865 1.22884529,11.1853407 1.94399295,11.4090549 C4.08943595,12.0700286 6.63777904,11.7853015 8.55155449,10.6565618 C9.91134231,9.85322449 11.2711301,8.25671877 11.9056978,6.71105717 C12.2481628,5.88738225 12.5906279,4.38239596 12.5906279,3.6604093 C12.5906279,3.19264329 12.6208454,3.13163033 13.1849056,2.57234488 C13.5172981,2.24694244 13.8295457,1.89103352 13.8899807,1.78934526 C13.9907058,1.59613756 13.9806333,1.59613756 13.4669356,1.76900761 C12.6107729,2.0740724 12.4899029,2.03339709 12.912948,1.57579991 C13.2251956,1.25039747 13.5978782,0.660605547 13.5978782,0.4877355 C13.5978782,0.457229022 13.4467906,0.508073153 13.2755581,0.599592589 C13.094253,0.701280852 12.691353,0.853813246 12.3891779,0.945332682 L11.8452628,1.11820273 L11.3517101,0.782631462 C11.0797526,0.599592589 10.6969975,0.396216064 10.4955474,0.335203106 C9.98184982,0.192839539 9.19619464,0.213177191 8.73285953,0.375878411 C7.47379674,0.833475593 6.67806905,2.01305944 6.76872157,3.30450038 Z" id="Combined-Shape"></path>
                        </g>
                    </g>
                </g>
            </g>
        </g>
    </g>
</svg>