<?xml version="1.0" encoding="UTF-8"?>
<svg width="17px" height="12px" viewBox="0 0 17 12" version="1.1" xmlns="http://www.w3.org/2000/svg" xmlns:xlink="http://www.w3.org/1999/xlink">
    <!-- Generator: Sketch 49.3 (51167) - http://www.bohemiancoding.com/sketch -->
    <title>Youtube Copy_White</title>
    <desc>Created with Sketch.</desc>
    <defs></defs>
    <g id="Symbols" stroke="none" stroke-width="1" fill="none" fill-rule="evenodd">
        <g id="element/footer" transform="translate(-995.000000, -122.000000)" fill="#FFFFFF">
            <g id="content">
                <g>
                    <g id="socials" transform="translate(955.000000, 120.000000)">
                        <g id="Youtube-Copy" transform="translate(40.000000, 2.000000)">
                            <path d="M15.9264,3.10144577 C15.9264,3.10144577 16.08,4.37187719 16.08,5.6418181 L16.08,6.83278624 C16.08,8.10321767 15.9264,9.37315857 15.9264,9.37315857 C15.9264,9.37315857 15.77616,10.4547421 15.31584,10.9310312 C14.73168,11.5564367 14.07696,11.5593797 13.77696,11.5961683 C11.62752,11.7550949 8.4,11.76 8.4,11.76 C8.4,11.76 4.4064,11.7227209 3.1776,11.6020545 C2.83584,11.5368161 2.06832,11.5564367 1.48368,10.9310312 C1.02336,10.4547421 0.8736,9.37315857 0.8736,9.37315857 C0.8736,9.37315857 0.72,8.10321767 0.72,6.83278624 L0.72,5.6418181 C0.72,4.37187719 0.8736,3.10144577 0.8736,3.10144577 C0.8736,3.10144577 1.02336,2.01986227 1.48368,1.54357311 C2.06832,0.918167681 2.72256,0.915224597 3.02304,0.878926556 C5.17248,0.72 8.39664,0.72 8.39664,0.72 L8.40336,0.72 C8.40336,0.72 11.62752,0.72 13.77696,0.878926556 C14.07696,0.915224597 14.73168,0.918167681 15.31584,1.54357311 C15.77616,2.01986227 15.9264,3.10144577 15.9264,3.10144577 Z M6.81408,8.27587862 L10.96368,6.07837562 L6.8136,3.86566668 L6.81408,8.27587862 Z" id="Combined-Shape"></path>
                        </g>
                    </g>
                </g>
            </g>
        </g>
    </g>
</svg>